<?xml version="1.0" encoding="UTF-8" standalone="no"?>
<!DOCTYPE svg PUBLIC "-//W3C//DTD SVG 1.1//EN" "http://www.w3.org/Graphics/SVG/1.1/DTD/svg11.dtd">
<svg width="100%" height="100%" viewBox="0 0 2160 392" version="1.1" xmlns="http://www.w3.org/2000/svg" xmlns:xlink="http://www.w3.org/1999/xlink" xml:space="preserve" xmlns:serif="http://www.serif.com/" style="fill-rule:evenodd;clip-rule:evenodd;stroke-linejoin:round;stroke-miterlimit:2;">
    <g transform="matrix(0.60197,0,0,0.60197,-544.452,-1014.47)">
        <path d="M962.96,1819.08C962.96,1769.99 995.24,1734.34 1042.99,1734.34C1080.65,1734.34 1123.69,1759.23 1151.27,1815.72L1160.01,1815.72L1148.58,1728.29C1112.93,1728.29 1079.98,1719.55 1045.68,1719.55C954.889,1719.55 904.45,1777.38 904.45,1834.55C904.45,1971.74 1120.33,2008.73 1120.33,2097.5C1120.33,2150.63 1080.65,2186.95 1034.25,2186.95C972.375,2186.95 936.731,2134.49 936.731,2077.33L936.731,2066.57L927.989,2066.57L908.485,2154.67C942.784,2184.93 988.515,2202.41 1034.25,2201.74C1108.22,2201.74 1180.18,2155.34 1180.18,2075.98C1180.18,1963 962.96,1921.98 962.96,1819.08Z" style="fill:rgb(150,136,119);fill-rule:nonzero;"/>
        <path d="M1319.39,1724.25L1268.95,1724.25C1279.04,1739.72 1283.75,1761.24 1283.75,1776.71C1283.75,1823.79 1240.04,1843.96 1198.34,1843.96L1198.34,1858.76L1258.87,1858.76L1258.87,2117.01C1258.87,2213.85 1353.69,2219.23 1438.43,2166.1L1426.33,2158.03C1392.03,2174.17 1319.39,2197.03 1319.39,2122.39L1319.39,1858.76L1418.26,1858.76L1418.26,1843.96L1319.39,1843.96L1319.39,1724.25Z" style="fill:rgb(150,136,119);fill-rule:nonzero;"/>
        <path d="M1642.88,1703.41L1609.25,1815.04L1620.01,1815.04L1715.51,1703.41L1642.88,1703.41ZM1635.48,1837.24C1526.53,1837.24 1429.02,1901.8 1429.02,2018.14C1429.02,2108.93 1497.61,2199.72 1635.48,2199.72C1773.35,2199.72 1842.61,2108.93 1842.61,2018.82C1842.61,1901.8 1744.43,1837.24 1635.48,1837.24ZM1635.48,2184.26C1542,2184.26 1494.25,2102.88 1494.25,2018.14C1494.25,1935.42 1541.33,1852.03 1635.48,1852.03C1729.63,1852.03 1777.38,1935.42 1776.71,2018.82C1776.71,2102.88 1728.29,2184.26 1635.48,2184.26Z" style="fill:rgb(150,136,119);fill-rule:nonzero;"/>
        <path d="M1973.76,1843.29L1852.7,1843.96L1852.7,1852.03C1874.22,1852.03 1913.23,1863.47 1913.23,1902.47L1913.23,2134.49C1913.23,2173.5 1874.22,2184.26 1852.7,2184.26L1852.7,2193L2033.61,2193L2033.61,2184.26C2012.76,2184.26 1973.76,2173.5 1973.76,2134.49L1973.76,1918.61C1985.86,1876.24 2078.67,1876.24 2133.81,1913.23L2150.63,1850.69C2094.81,1840.6 2013.43,1853.38 1973.76,1894.4L1973.76,1843.29Z" style="fill:rgb(150,136,119);fill-rule:nonzero;"/>
        <path d="M2266.3,1888.35C2252.85,1860.1 2279.75,1852.03 2295.89,1852.03L2295.89,1843.96L2140.54,1843.96L2140.54,1852.03C2156.68,1852.03 2182.91,1859.43 2197.7,1888.35L2348.35,2185.6C2330.86,2227.3 2288.49,2320.11 2226.62,2320.11C2183.58,2320.11 2144.57,2291.86 2102.88,2229.32L2064.55,2286.48C2098.84,2316.74 2147.94,2336.25 2211.83,2336.25C2291.86,2336.25 2332.21,2261.6 2357.09,2203.09L2474.11,1930.05C2507.74,1853.38 2533.29,1852.03 2549.43,1852.03L2549.43,1843.96L2447.21,1843.96L2447.21,1852.03C2463.35,1852.03 2491.59,1853.38 2458.64,1930.05L2353.73,2174.17C2353.05,2174.84 2353.05,2175.51 2352.38,2176.86C2313.38,2111.62 2373.23,2104.9 2344.99,2048.41L2266.3,1888.35Z" style="fill:rgb(150,136,119);fill-rule:nonzero;"/>
    </g>
    <g transform="matrix(0.60197,0,0,0.60197,578.359,-1014.47)">
        <path d="M949.509,1723.58C949.509,1745.78 964.977,1761.24 987.843,1761.24C1010.04,1761.24 1025.5,1745.78 1025.5,1723.58C1025.5,1700.72 1010.04,1685.25 987.843,1685.25C964.977,1685.25 949.509,1700.72 949.509,1723.58ZM1018.78,1843.96L897.725,1843.96L897.725,1852.03C919.246,1852.03 958.252,1863.47 958.252,1902.47L958.252,2134.49C958.252,2173.5 919.246,2184.26 897.725,2184.26L897.725,2193L1078.63,2193L1078.63,2184.26C1057.79,2184.26 1018.78,2173.5 1018.78,2134.49L1018.78,1843.96Z" style="fill:rgb(150,136,119);fill-rule:nonzero;"/>
        <path d="M1430.36,2073.96C1414.22,2135.16 1369.16,2184.93 1296.53,2184.93C1202.38,2184.93 1155.3,2086.74 1155.3,2004.02C1155.3,1933.41 1196.32,1853.38 1281.73,1853.38C1324.78,1853.38 1363.78,1880.95 1405.48,1944.17L1443.81,1886.33C1409.51,1856.74 1360.42,1837.24 1296.53,1837.24C1187.58,1837.24 1090.07,1902.47 1090.07,2018.14C1090.07,2108.93 1158.66,2199.72 1296.53,2199.72C1384.63,2199.72 1443.81,2162.74 1476.09,2112.97L1430.36,2073.96Z" style="fill:rgb(150,136,119);fill-rule:nonzero;"/>
        <path d="M1689.95,1837.24C1581,1837.24 1482.82,1901.8 1482.82,2018.82C1482.82,2108.93 1552.09,2199.72 1689.95,2199.72C1827.82,2199.72 1897.09,2108.93 1897.09,2018.82C1897.09,1901.8 1798.9,1837.24 1689.95,1837.24ZM1689.95,2184.26C1596.47,2184.26 1548.72,2102.88 1548.72,2018.14C1548.72,1935.42 1595.8,1852.03 1689.95,1852.03C1784.11,1852.03 1831.18,1935.42 1831.18,2018.82C1831.18,2102.88 1782.76,2184.26 1689.95,2184.26Z" style="fill:rgb(150,136,119);fill-rule:nonzero;"/>
        <path d="M2028.23,1946.86C2055.13,1895.75 2101.53,1859.43 2139.87,1859.43C2174.84,1859.43 2202.41,1889.02 2202.41,1963L2202.41,2134.49C2202.41,2173.5 2163.41,2184.26 2142.56,2184.26L2142.56,2193L2323.47,2193L2323.47,2184.26C2301.94,2184.26 2262.94,2173.5 2262.94,2134.49L2262.94,1952.91C2262.94,1873.55 2219.22,1837.24 2166.77,1837.24C2119.02,1837.24 2064.55,1865.48 2028.23,1917.94L2028.23,1843.96L1907.17,1843.96L1907.17,1852.03C1928.7,1852.03 1967.7,1863.47 1967.7,1902.47L1967.7,2134.49C1967.7,2173.5 1928.7,2184.26 1907.17,2184.26L1907.17,2193L2088.08,2193L2088.08,2184.26C2067.24,2184.26 2027.56,2173.5 2028.23,2134.49L2028.23,1946.86Z" style="fill:rgb(150,136,119);fill-rule:nonzero;"/>
        <path d="M2481.51,2201.74C2570.95,2201.74 2627.44,2156.68 2627.44,2107.59C2627.44,1987.88 2403.49,1996.62 2403.49,1903.82C2403.49,1888.35 2415.6,1852.7 2459.99,1852.7C2503.03,1852.7 2542.03,1880.95 2583.73,1944.17L2622.06,1886.33C2587.76,1856.74 2538.67,1837.24 2474.78,1837.24C2383.99,1837.24 2351.71,1883.64 2351.71,1930.72C2351.71,2050.43 2568.26,2024.2 2567.59,2125.75C2567.59,2157.36 2539.34,2185.6 2496.3,2185.6C2453.26,2185.6 2414.25,2158.03 2372.56,2094.81L2334.22,2152.65C2368.52,2182.24 2417.62,2202.41 2481.51,2201.74Z" style="fill:rgb(150,136,119);fill-rule:nonzero;"/>
    </g>
</svg>
